<svg version="1.1" id="Layer_1" xmlns="http://www.w3.org/2000/svg" xmlns:xlink="http://www.w3.org/1999/xlink" x="0px" y="0px"
	 width="100%" viewBox="0 0 700 700" enable-background="new 0 0 700 700" xml:space="preserve">
<path fill="#206794" opacity="1.000000" stroke="none" 
	d="
M417.069305,349.027435 
	C417.171936,348.443237 417.274567,347.859009 417.654755,346.860596 
	C417.932312,346.446350 417.965332,346.223999 417.965332,346.223999 
	C417.151001,344.309082 416.834442,341.858368 415.442474,340.565338 
	C405.596497,331.419006 401.408539,320.177765 404.188110,307.181793 
	C406.968323,294.182861 415.396667,285.415802 428.163361,281.453369 
	C447.407623,275.480560 467.314270,286.729095 472.383972,306.133179 
	C477.107513,324.212341 464.724945,343.838440 445.872589,347.635406 
	C441.382996,348.539612 436.641571,348.193665 433.628540,348.342896 
	C428.234436,356.368378 424.177429,364.314453 418.377563,370.670074 
	C401.979706,388.639191 370.828369,389.307587 353.580597,372.080170 
	C347.872437,366.378784 342.164642,360.078735 340.351990,351.048950 
	C340.416931,346.993774 340.055817,343.584930 340.036224,340.174133 
	C339.963165,327.450348 340.068970,314.725098 339.917664,302.002686 
	C339.897888,300.341736 338.772919,298.693909 338.159882,297.040009 
	C337.618744,294.231934 337.478271,291.287354 333.010040,292.936066 
	C331.624878,293.447205 329.469330,292.369232 327.837799,291.637024 
	C311.568909,284.335754 299.314331,272.286835 288.975403,258.142670 
	C271.834564,234.693115 261.874207,208.361664 258.335510,179.601562 
	C256.721619,166.484985 257.676575,153.826691 266.765991,143.122391 
	C272.048492,136.901382 279.007141,133.696976 286.736816,131.622330 
	C288.891174,131.044083 291.128326,129.547745 292.587677,127.840240 
	C296.720856,123.004234 305.985962,119.801064 312.093994,121.550850 
	C316.963898,122.945930 319.638153,126.199760 320.170197,131.187561 
	C320.789856,136.996948 319.976166,142.422501 314.124054,145.270477 
	C307.635040,148.428436 300.992218,150.209656 294.642395,144.576981 
	C293.788971,143.819931 292.222351,143.364578 291.081940,143.511932 
	C281.065826,144.806015 271.205505,154.168427 271.211334,164.142654 
	C271.233673,202.390533 283.003448,236.159073 312.203644,262.083466 
	C318.307831,267.502838 326.903564,270.115814 334.812805,274.529999 
	C337.544525,275.348663 339.814575,275.659332 342.084656,275.970032 
	C342.084656,275.970032 342.561188,275.975342 343.084167,276.285156 
	C351.038605,276.487762 358.841766,277.960327 364.803772,271.607758 
	C364.803772,271.607758 364.850586,271.724426 365.126373,271.780548 
	C365.896240,271.464935 366.390320,271.093201 366.884399,270.721436 
	C366.884399,270.721466 366.895386,270.841034 367.174164,270.853455 
	C367.935699,270.484406 368.418457,270.102997 368.901245,269.721588 
	C368.901245,269.721588 368.903046,269.855347 369.243347,269.888702 
	C371.866241,269.266937 375.212372,270.032288 374.914551,265.930695 
	C375.289795,265.593811 375.665039,265.256927 376.695526,264.929016 
	C381.480164,266.590515 385.112061,267.981415 384.901764,260.823547 
	C384.858673,259.356232 388.716339,256.296753 390.317963,256.578125 
	C393.298676,257.101807 394.135681,255.647247 395.400696,253.951675 
	C396.144073,252.955276 396.840576,251.341202 397.770355,251.172150 
	C401.002563,250.584457 401.209320,248.401642 400.959381,245.990646 
	C400.705902,243.545593 400.139404,241.133026 399.710022,238.706223 
	C399.710022,238.706223 399.692078,238.924728 400.089844,238.908157 
	C403.669098,239.831131 406.850616,240.770660 409.809235,241.644394 
	C408.936188,244.313629 407.994934,247.191422 407.053650,250.069229 
	C407.053650,250.069229 407.000671,250.006561 406.684814,250.068298 
	C405.923187,251.102768 405.477448,252.075516 405.031677,253.048248 
	C405.031677,253.048248 404.995392,253.008636 404.788574,253.151093 
	C404.452484,253.621414 404.323242,253.949310 404.193970,254.277191 
	C404.193970,254.277191 404.170685,254.122452 403.936981,254.241516 
	C403.495392,254.946350 403.287476,255.532120 403.079590,256.117889 
	C403.079590,256.117889 403.028351,256.032043 402.746490,256.058472 
	C401.951996,257.048004 401.439362,258.011047 400.926727,258.974091 
	C400.727356,259.436615 400.527985,259.899139 399.846558,260.315186 
	C396.141541,259.766479 396.022949,261.891022 396.073242,264.158447 
	C391.773712,268.478302 387.495575,272.819794 383.155121,277.098083 
	C382.369110,277.872803 381.117340,278.216583 380.436584,279.050079 
	C373.976654,286.959991 365.280975,291.063751 355.797729,294.019318 
	C354.459198,294.436462 352.596191,296.212860 352.583069,297.378235 
	C352.419708,311.847351 352.043579,326.345215 352.762238,340.783905 
	C353.420532,354.008789 361.125519,362.941650 373.191193,367.806458 
	C384.901855,372.528107 395.991333,370.727570 406.146545,363.237213 
	C406.947510,362.646423 407.683136,361.967102 409.125183,361.163910 
	C410.501251,359.953918 411.201294,358.908966 411.901337,357.864044 
	C411.901337,357.864044 411.956696,357.959320 412.259491,357.934998 
	C416.771027,356.417542 418.322052,353.360474 417.069305,349.027435 
M427.132538,330.753540 
	C427.132538,330.753540 427.231079,330.780121 427.205597,331.525818 
	C432.023071,335.320496 443.263031,336.346313 448.234619,333.229767 
	C449.122009,332.673462 449.391815,331.131989 450.373718,329.514648 
	C455.918915,325.346039 459.474701,320.583038 458.257233,312.848724 
	C457.025604,305.024628 453.113403,299.712616 446.317505,296.260162 
	C439.544067,292.819031 433.139984,294.170135 427.060181,298.163696 
	C418.452026,303.818054 413.616730,318.559906 426.299500,330.368042 
	C426.605225,330.515289 426.910919,330.662506 427.132538,330.753540 
M351.908264,336.052643 
	C351.908264,323.820282 351.908264,311.587921 351.908264,299.355560 
	C351.695221,299.359467 351.482178,299.363373 351.269135,299.367310 
	C351.269135,312.847900 351.269135,326.328491 351.269135,339.809082 
	C351.482086,339.808472 351.695068,339.807892 351.908020,339.807281 
	C351.908020,338.841003 351.908020,337.874756 351.908264,336.052643 
z"/>
<path fill="#246994" opacity="1.000000" stroke="none" 
	d="
M586.681335,443.718384 
	C581.749573,450.852112 577.169739,457.796539 572.282349,464.517365 
	C570.134094,467.471649 569.903564,469.553375 572.244507,472.744843 
	C580.194885,483.584076 587.708801,494.743469 596.050781,506.731049 
	C590.864807,506.731049 586.463074,507.002106 582.129211,506.578552 
	C580.686096,506.437500 579.090942,504.745819 578.122375,503.370667 
	C572.680603,495.644257 567.408936,487.798096 561.660339,479.379303 
	C556.158936,487.399323 550.777039,494.724609 546.009521,502.429993 
	C543.851013,505.918549 541.448059,507.183685 537.559448,506.814453 
	C534.588928,506.532349 531.570129,506.758392 527.649902,506.758392 
	C528.693542,504.989563 529.393127,503.619049 530.259888,502.363983 
	C537.064636,492.511017 543.840942,482.637299 550.767395,472.870178 
	C552.696716,470.149597 553.268494,468.095001 551.050903,464.973755 
	C544.598206,455.891388 538.578552,446.500275 532.443237,437.194550 
	C531.405396,435.620422 530.635742,433.869476 529.689880,432.102570 
	C530.593262,431.803131 530.886047,431.665802 531.193604,431.609955 
	C540.882202,429.850525 547.442932,433.232819 551.565491,442.539825 
	C553.932068,447.882538 557.990479,452.475861 561.637268,457.930023 
	C566.592773,450.691437 571.474182,444.175476 575.649841,437.234955 
	C578.219604,432.963623 581.237305,431.054474 586.151062,431.690643 
	C588.573914,432.004303 591.070923,431.745026 594.464355,431.745026 
	C591.639404,436.116699 589.273804,439.777435 586.681335,443.718384 
z"/>
<path fill="#216693" opacity="1.000000" stroke="none" 
	d="
M403.949249,230.981384 
	C411.399780,215.130341 417.547821,198.849136 419.387299,181.284744 
	C419.991119,175.519104 420.351440,169.633408 419.908569,163.872925 
	C419.058685,152.817581 410.015076,145.783951 399.544708,143.607346 
	C398.604675,143.411926 397.300079,144.551010 396.277954,145.238525 
	C390.393585,149.196381 379.464691,148.419159 374.270752,143.624985 
	C370.650330,140.283218 369.536804,132.350876 371.977509,127.288612 
	C374.076660,122.934860 379.378296,120.220993 385.067841,121.142197 
	C390.698914,122.053917 396.040833,123.712158 399.491852,128.980164 
	C400.246613,130.132324 402.046082,130.898804 403.506226,131.245026 
	C422.951782,135.855835 433.966431,149.840042 433.404724,169.733932 
	C432.790344,191.494507 426.778076,211.922165 417.577759,231.500549 
	C416.629883,233.517746 415.345917,235.376999 413.751740,237.491592 
	C411.235321,234.749771 408.650360,232.612549 405.032654,231.905899 
	C404.626801,231.826614 404.308289,231.300354 403.949249,230.981384 
z"/>
<path fill="#226894" opacity="1.000000" stroke="none" 
	d="
M469.310608,504.987549 
	C467.079865,499.729279 464.849121,494.471039 461.983459,488.783234 
	C451.260742,488.241882 441.172974,488.106903 431.084869,488.070282 
	C430.409912,488.067841 429.732269,488.810608 429.055878,489.206787 
	C427.335541,493.955475 425.615204,498.704132 423.379944,503.961365 
	C419.079041,504.675049 415.293091,504.880188 411.501587,505.085602 
	C412.075378,501.649933 412.474304,499.261414 412.873230,496.872864 
	C412.873230,496.872864 412.959076,496.962433 413.231689,496.801880 
	C414.986450,492.433105 416.468628,488.224854 417.950806,484.016602 
	C423.609497,470.790466 429.301086,457.578247 434.901703,444.327545 
	C436.160767,441.348694 436.964691,438.177704 438.219574,435.196808 
	C440.534058,429.699097 445.539001,431.703430 449.445374,431.900055 
	C451.256897,431.991241 453.743744,434.251892 454.557983,436.123535 
	C461.585083,452.275391 468.300476,468.562866 475.122040,485.532043 
	C475.759857,487.501617 476.384430,488.749023 477.009003,489.996460 
	C477.009003,489.996460 477.216034,490.189606 477.182678,490.750305 
	C478.514038,494.172394 479.878754,497.033783 481.243439,499.895203 
	C481.243439,499.895203 481.146637,499.895355 481.109711,500.250031 
	C481.175751,501.954163 481.278687,503.303650 481.407166,504.987549 
	C477.081757,504.987549 473.196198,504.987549 469.310608,504.987549 
M443.286469,455.258881 
	C440.343384,462.354492 437.400299,469.450073 434.318024,476.881226 
	C442.589630,476.881226 450.114380,476.881226 458.290131,476.881226 
	C455.430939,470.268311 452.769775,464.113373 450.054657,457.207214 
	C448.892975,454.212341 447.731293,451.217468 446.118408,447.059357 
	C445.197784,450.391144 444.565125,452.680725 443.286469,455.258881 
z"/>
<path fill="#246A94" opacity="1.000000" stroke="none" 
	d="
M142.559937,463.533325 
	C147.409119,465.386627 152.332275,466.401001 156.269516,468.942596 
	C169.812103,477.684753 168.689117,496.447479 154.464661,504.131897 
	C140.516983,511.666687 120.659859,507.820038 110.127609,495.253265 
	C112.865097,492.714417 115.623611,490.156036 118.736633,487.268860 
	C125.079742,495.691315 133.971848,497.282715 143.399002,495.677795 
	C146.738617,495.109253 150.962723,492.708740 152.415344,489.913971 
	C154.119705,486.634827 153.210098,481.901855 148.905396,479.696411 
	C145.541687,477.973053 141.999512,476.558533 138.444916,475.257294 
	C134.101349,473.667297 129.487473,472.721283 125.303230,470.811554 
	C118.318855,467.623779 114.274757,462.222229 113.648926,454.192322 
	C112.942749,445.131531 116.530685,438.025635 124.294975,434.477966 
	C129.563522,432.070679 136.111877,432.150085 142.127274,431.806183 
	C145.906860,431.590118 150.004044,431.994965 153.513809,433.309387 
	C157.431244,434.776398 160.844910,437.588684 164.877533,440.060425 
	C161.820282,443.592865 159.349609,446.447540 156.872635,449.309540 
	C153.925842,447.473267 151.377716,445.609619 148.595642,444.211456 
	C143.427994,441.614410 138.043762,441.594727 132.620758,443.555481 
	C129.173157,444.801971 127.180893,447.049744 126.827888,450.847290 
	C126.477951,454.611725 127.778961,457.566803 131.058640,459.150787 
	C134.619080,460.870392 138.462143,462.004852 142.559937,463.533325 
z"/>
<path fill="#206995" opacity="1.000000" stroke="none" 
	d="
M223.526688,440.865234 
	C228.722946,453.199097 233.919205,465.532990 239.148636,478.617920 
	C239.521851,480.612488 239.695847,481.933472 240.233383,483.084747 
	C241.781784,486.401184 243.476913,489.649109 245.114410,492.923950 
	C245.114410,492.923950 245.005890,492.968689 245.028473,493.324585 
	C245.770920,495.685364 246.393112,497.732208 247.231400,499.686310 
	C248.880417,503.530212 248.139297,504.882477 244.122604,505.059418 
	C237.727371,505.341095 235.663696,503.373291 233.864655,496.620422 
	C233.152512,493.947296 231.202667,491.603943 229.816360,489.110443 
	C229.816360,489.110443 229.369278,489.041595 228.849960,488.689575 
	C219.602585,488.218689 210.874603,488.043488 202.146378,488.029297 
	C200.434692,488.026520 198.721985,488.646912 197.009750,488.979919 
	C197.009750,488.979919 197.040970,488.997437 196.689423,489.050354 
	C194.238068,493.311279 192.192047,497.547607 190.004135,501.709351 
	C189.383759,502.889404 188.456192,504.635773 187.485214,504.767883 
	C184.521591,505.171021 181.468185,504.914246 178.336105,504.914246 
	C179.643265,500.696747 180.688507,497.324249 181.733765,493.951721 
	C188.670151,476.467926 195.606552,458.984100 203.076950,441.089478 
	C204.502289,439.497345 205.442261,438.349213 206.276581,437.128876 
	C209.986603,431.702301 213.159836,431.431213 217.795563,436.009735 
	C219.571793,437.764038 221.608612,439.254547 223.526688,440.865234 
M216.748077,455.793854 
	C215.717972,453.366821 214.687881,450.939789 213.292084,447.651154 
	C209.255737,457.721375 205.519073,467.043945 201.599167,476.823669 
	C209.702850,476.823669 217.178009,476.823669 225.223526,476.823669 
	C222.319992,469.701996 219.634781,463.115845 216.748077,455.793854 
z"/>
<path fill="#1E6895" opacity="1.000000" stroke="none" 
	d="
M328.009796,506.544037 
	C326.933136,506.606964 325.856445,506.669891 324.268250,506.322998 
	C321.352295,504.301880 318.975220,502.647217 316.527618,501.104431 
	C315.742554,500.609619 314.771240,500.410339 313.885162,500.075867 
	C305.041290,488.533142 296.197418,476.990448 287.009094,464.903412 
	C284.103394,461.094543 281.542114,457.830048 278.915710,454.232361 
	C275.718964,450.823334 271.221313,448.667755 271.661591,442.944824 
	C275.678833,441.986389 279.778656,441.008270 283.878479,440.030121 
	C294.378723,453.892365 304.860840,467.768463 315.411957,481.591858 
	C316.297302,482.751801 317.646057,483.558014 319.190979,483.932495 
	C319.730713,468.387177 319.970520,453.437531 319.913666,438.489014 
	C319.898285,434.436829 321.139954,432.980743 325.326141,432.861053 
	C329.761414,432.734253 330.078003,434.845673 330.061310,438.312073 
	C329.962067,458.934662 330.068939,479.558441 329.922302,500.180481 
	C329.907227,502.306061 328.676453,504.423065 328.009796,506.544037 
z"/>
<path fill="#1E6897" opacity="1.000000" stroke="none" 
	d="
M407.767761,440.918640 
	C407.830444,441.105743 407.893127,441.292816 407.423706,441.748413 
	C399.605133,442.655518 392.318695,443.294159 385.032227,443.932831 
	C385.032227,443.932831 385.007477,444.015625 384.620422,444.005402 
	C383.717957,444.315948 382.751190,444.639099 382.752838,444.957153 
	C382.799133,453.683441 383.131683,462.411591 383.022614,471.134460 
	C382.901306,480.835968 382.354675,490.531555 382.071411,500.231964 
	C381.957001,504.149872 379.934174,505.229980 376.264526,505.121155 
	C372.123566,504.998383 372.996704,502.179504 372.990723,499.856689 
	C372.948792,483.577789 373.076263,467.297394 372.871490,451.020935 
	C372.833588,448.006622 371.535095,445.008209 370.818420,442.002441 
	C370.586823,442.162109 370.327332,442.294800 370.135284,442.492859 
	C370.040314,442.590820 370.069611,442.809265 369.569946,442.985443 
	C363.938049,443.000427 358.771149,442.829132 353.622070,443.058411 
	C349.140717,443.257996 349.109039,440.584473 348.929474,437.284210 
	C348.723206,433.492310 350.505371,432.930084 353.715393,432.957306 
	C368.026917,433.078674 382.339996,433.012695 396.652527,433.013214 
	C405.726318,433.013550 405.726318,433.012604 407.767761,440.918640 
z"/>
<path fill="#266B99" opacity="1.000000" stroke="none" 
	d="
M283.787445,439.730682 
	C279.778656,441.008270 275.678833,441.986389 271.661591,442.944824 
	C271.221313,448.667755 275.718964,450.823334 278.838989,454.644531 
	C278.712250,455.936005 278.597137,456.482086 278.206116,456.906982 
	C277.619598,458.214417 277.048187,459.641510 277.039398,461.071991 
	C276.965302,473.169586 276.990540,485.267792 276.992737,497.365814 
	C276.994232,505.465424 276.223328,506.144287 268.235443,504.868805 
	C267.435455,504.741058 266.684692,504.305084 265.802063,503.553101 
	C265.765900,485.392059 265.838684,467.690063 266.218140,449.718628 
	C266.320374,445.970245 266.115936,442.491302 265.802734,438.603027 
	C265.766327,436.791992 265.838623,435.390320 266.170959,433.836670 
	C266.624115,433.128754 266.817230,432.572845 267.256287,431.955750 
	C267.666229,431.934967 267.830261,431.975403 268.289307,432.304749 
	C271.819763,432.695648 275.055298,432.797607 278.561768,433.028564 
	C279.518341,433.870239 280.203949,434.582916 280.889557,435.295624 
	C281.825165,436.674164 282.760803,438.052704 283.787445,439.730682 
z"/>
<path fill="#2E688E" opacity="1.000000" stroke="none" 
	d="
M378.148621,551.744385 
	C378.251404,555.887817 378.198486,560.042725 378.503845,564.171143 
	C378.772400,567.802612 377.301544,568.625793 373.720398,567.425415 
	C373.720398,562.397278 373.720398,557.287109 373.720398,552.177002 
	C373.293213,551.952271 372.866028,551.727539 372.438843,551.502808 
	C369.936981,555.146912 367.435120,558.791016 364.650787,562.846558 
	C361.912354,558.812866 359.358185,555.050598 356.803986,551.288269 
	C356.457764,551.309753 356.111542,551.331238 355.765320,551.352661 
	C355.765320,555.651550 355.643402,559.954895 355.803406,564.247803 
	C355.934265,567.757751 354.512512,568.661072 351.161377,567.493469 
	C351.161377,558.527588 351.161377,549.618774 351.161377,540.000427 
	C360.055054,540.766357 359.533417,549.981995 365.134033,554.005005 
	C367.316284,550.536316 369.462860,546.734009 372.029785,543.240662 
	C373.024689,541.886597 374.970520,541.231262 376.760406,540.889832 
	C377.037659,549.222595 377.037659,556.923279 377.037659,564.623901 
	C377.407990,564.619934 377.778290,564.615967 378.148621,564.611938 
	C378.148621,560.322754 378.148621,556.033569 378.148621,551.744385 
z"/>
<path fill="#2B678E" opacity="1.000000" stroke="none" 
	d="
M224.611542,555.334290 
	C223.241531,553.638428 222.084930,552.246033 220.126556,549.888428 
	C220.126556,556.429321 220.126556,561.927063 220.126556,567.838013 
	C218.180557,568.029663 216.818970,568.163818 215.183441,568.324890 
	C215.183441,558.823853 215.183441,549.740723 215.183441,539.182007 
	C217.704208,540.756470 219.849380,541.481995 221.066147,542.967834 
	C225.233002,548.056091 229.074051,553.411072 233.807907,559.682556 
	C233.807907,552.555420 233.807907,546.675354 233.807907,540.795288 
	C234.196762,540.457214 234.585602,540.119202 234.974457,539.781128 
	C236.077621,540.751892 238.106567,541.693726 238.137924,542.697937 
	C238.396286,550.971130 238.283936,559.255920 238.283936,568.261230 
	C230.248566,567.039368 229.215958,559.513000 224.611542,555.334290 
z"/>
<path fill="#2B678E" opacity="1.000000" stroke="none" 
	d="
M279.330994,540.221436 
	C282.778717,540.203369 285.974487,539.529419 288.694366,540.379089 
	C291.583496,541.281616 295.476410,543.126465 296.286957,545.473083 
	C297.295319,548.392334 295.754761,552.285095 294.951202,555.671082 
	C294.753021,556.506287 293.147034,557.007507 292.266602,557.608704 
	C294.340454,561.345215 296.003967,564.342285 297.681366,567.364502 
	C294.057648,569.011719 292.436768,567.261719 290.661926,564.632874 
	C288.736542,561.781006 288.068359,556.827026 282.084534,558.504578 
	C282.084534,561.389099 282.084534,564.447693 282.084534,567.746094 
	C280.302399,567.746094 279.039368,567.746094 277.678467,567.746094 
	C277.504517,567.339600 277.156952,566.902161 277.152557,566.461365 
	C277.075531,558.665222 276.975616,550.867798 277.079376,543.073303 
	C277.092072,542.119751 278.245148,541.181274 279.330994,540.221436 
M291.876923,546.333313 
	C288.752533,545.691895 285.628143,545.050415 282.342896,544.375977 
	C282.342896,548.287415 282.342896,550.995422 282.342896,553.667236 
	C291.713593,554.421936 293.190826,553.399170 291.876923,546.333313 
z"/>
<path fill="#2B678E" opacity="1.000000" stroke="none" 
	d="
M506.604645,543.498657 
	C507.956635,542.342834 509.097870,540.967224 510.338928,540.870300 
	C511.311646,540.794373 512.923950,542.084229 513.367249,543.139160 
	C516.766418,551.227173 519.948914,559.406250 523.272522,567.742188 
	C520.061646,569.200134 517.832703,568.602356 517.119385,565.292236 
	C516.456238,562.214722 514.517700,561.682007 512.001404,562.140198 
	C508.912537,562.702820 504.655670,560.030090 503.107056,565.061401 
	C502.129211,568.238281 500.317017,569.281616 496.745972,567.846130 
	C500.007141,559.764282 503.222015,551.797180 506.604645,543.498657 
M512.607239,553.056335 
	C511.881409,551.513306 511.155579,549.970276 510.026489,547.570007 
	C508.601837,551.117981 507.500458,553.860901 506.306885,556.833374 
	C509.129791,556.833374 511.358673,556.833374 513.776123,556.833374 
	C513.432922,555.612915 513.171326,554.682556 512.607239,553.056335 
z"/>
<path fill="#2E688E" opacity="1.000000" stroke="none" 
	d="
M205.441238,565.285583 
	C204.660492,566.432251 203.880585,567.790894 203.048965,567.823303 
	C197.926620,568.023010 192.792603,567.923523 187.347931,567.923523 
	C187.347931,558.587830 187.347931,549.698303 187.347931,540.482666 
	C193.134613,540.482666 198.721054,540.482666 204.293304,540.482666 
	C204.984619,544.932129 204.984741,544.943848 200.299774,544.989746 
	C197.680283,545.015381 195.060333,544.994385 192.198471,544.994385 
	C192.198471,547.586609 192.198471,549.682495 192.198471,551.971436 
	C196.160294,552.536011 200.072205,553.057007 203.949310,553.767883 
	C204.119431,553.799011 203.971085,555.567261 203.971085,557.001831 
	C199.918320,557.001831 196.160034,557.001831 192.175690,557.001831 
	C192.175690,559.230408 192.175690,560.983643 192.175690,562.624268 
	C196.707962,563.397888 201.063080,564.141174 205.441238,565.285583 
z"/>
<path fill="#2E688E" opacity="1.000000" stroke="none" 
	d="
M162.956879,568.178955 
	C154.055511,564.607544 150.504959,556.995667 153.594208,548.810486 
	C156.175919,541.970032 164.205124,538.244995 171.175613,540.990112 
	C173.472351,541.894531 175.381973,543.782043 177.468597,545.219971 
	C177.278290,545.873352 177.087967,546.526733 176.897659,547.180115 
	C175.219742,546.975647 173.284561,547.238159 171.910828,546.481445 
	C167.293716,543.938110 163.055466,544.291199 159.800125,547.942444 
	C156.515137,551.626953 156.614136,557.322083 160.029282,561.126221 
	C163.173126,564.628174 167.544846,564.868469 172.149139,562.251648 
	C173.564117,561.447388 175.557510,561.660889 177.401764,562.036438 
	C174.052185,567.781311 169.226089,569.365173 162.956879,568.178955 
z"/>
<path fill="#2E688E" opacity="1.000000" stroke="none" 
	d="
M472.141479,560.703613 
	C477.145172,564.875916 479.891754,564.953003 484.973785,561.985474 
	C486.269043,561.229187 488.194061,561.551331 490.587860,561.297607 
	C486.564392,567.821472 481.564117,569.783447 475.227966,568.137268 
	C469.659027,566.690491 465.329773,561.303955 465.013916,555.428589 
	C464.650757,548.673706 468.129761,543.102112 474.059509,540.942017 
	C480.189240,538.709045 485.549225,540.388428 490.723694,547.153137 
	C488.234955,547.153137 486.113953,547.816284 485.108002,547.038086 
	C480.798523,543.704224 476.759583,544.128418 472.886261,547.344177 
	C469.107208,550.481567 468.902069,554.911865 472.141479,560.703613 
z"/>
<path fill="#2E688E" opacity="1.000000" stroke="none" 
	d="
M430.906860,541.252930 
	C438.756195,543.526123 442.425873,549.957947 440.518585,558.099304 
	C438.558624,566.465515 431.106445,569.559692 417.465576,567.362732 
	C417.465576,559.204224 417.465576,550.949097 418.043945,542.337402 
	C422.717163,541.738281 426.812012,541.495605 430.906860,541.252930 
M422.600494,563.485291 
	C431.011719,563.873962 434.522430,562.327271 435.845428,557.649902 
	C437.329590,552.402710 435.549835,548.470215 429.684570,544.632446 
	C426.632202,544.133911 422.306122,542.055542 421.319122,546.209473 
	C420.087250,551.393921 420.772827,557.036621 420.707428,562.482361 
	C420.705475,562.648804 421.559753,562.825439 422.600494,563.485291 
z"/>
<path fill="#2E688E" opacity="1.000000" stroke="none" 
	d="
M389.155304,567.530884 
	C389.155304,567.530884 389.290619,567.286804 389.344147,566.910522 
	C389.439270,566.347473 389.480835,566.160645 389.861755,565.809875 
	C390.465881,564.075195 390.937897,562.507141 390.959320,560.933044 
	C391.049377,554.312744 391.004822,547.690674 391.009552,541.069214 
	C395.486237,540.995911 399.971863,540.744568 404.433746,540.967529 
	C405.634399,541.027527 406.763031,542.529419 407.924713,543.369507 
	C407.666382,543.859741 407.408051,544.350037 407.149719,544.840332 
	C403.064331,544.840332 398.978943,544.840332 394.501404,544.840332 
	C394.501404,547.422729 394.501404,549.625427 394.496948,551.829712 
	C397.686584,554.411438 403.982788,549.865234 406.120941,554.871460 
	C405.875305,555.575684 405.629669,556.279968 405.384033,556.984253 
	C401.784637,556.984253 398.185211,556.984253 394.326782,556.984253 
	C394.326782,559.267273 394.326782,561.148987 394.326782,563.475037 
	C398.223755,563.475037 401.861359,563.258118 405.446136,563.597961 
	C406.630585,563.710205 407.678925,565.258423 408.789490,566.150146 
	C407.636108,566.741455 406.506317,567.781189 405.325134,567.843262 
	C401.167511,568.061584 396.992249,567.944092 392.172791,567.939331 
	C390.733032,567.793335 389.944183,567.662109 389.155304,567.530884 
z"/>
<path fill="#457394" opacity="1.000000" stroke="none" 
	d="
M370.042664,442.973175 
	C370.069611,442.809265 370.040314,442.590820 370.135284,442.492859 
	C370.327332,442.294800 370.586823,442.162109 370.818420,442.002441 
	C371.535095,445.008209 372.833588,448.006622 372.871490,451.020935 
	C373.076263,467.297394 372.948792,483.577789 372.990723,499.856689 
	C372.996704,502.179504 372.123566,504.998383 376.264526,505.121155 
	C379.934174,505.229980 381.957001,504.149872 382.071411,500.231964 
	C382.354675,490.531555 382.901306,480.835968 383.022614,471.134460 
	C383.131683,462.411591 382.799133,453.683441 382.752838,444.957153 
	C382.751190,444.639099 383.717957,444.315948 384.577271,444.007111 
	C384.740814,453.799347 384.482239,463.578979 384.401031,473.360107 
	C384.310181,484.298462 384.380157,495.238129 384.380157,506.537384 
	C379.883179,506.537384 375.847992,506.537384 371.151947,506.537384 
	C371.151947,504.646118 371.152069,502.881744 371.151917,501.117401 
	C371.150452,484.166687 371.162598,467.215912 371.129059,450.265259 
	C371.125153,448.291595 370.868591,446.318451 370.376312,443.886414 
	C370.023468,443.427734 370.042664,442.973175 370.042664,442.973175 
z"/>
<path fill="#2B678E" opacity="1.000000" stroke="none" 
	d="
M313.017609,540.418152 
	C315.382355,540.358826 317.747101,540.299438 320.636353,540.626282 
	C321.770386,542.276611 322.379944,543.540649 322.989502,544.804749 
	C319.539185,544.804749 316.088867,544.804749 312.079590,544.804749 
	C312.079590,547.000916 312.079590,548.603271 312.075348,551.025330 
	C315.534912,552.843018 318.998688,553.841003 323.570648,555.158203 
	C319.777710,555.826233 316.900635,556.332947 314.023529,556.839661 
	C313.377808,558.593506 312.732056,560.347351 312.328003,562.831421 
	C314.797791,563.720154 317.059296,564.193420 319.246002,563.961548 
	C322.334930,563.633911 324.125122,564.724670 324.901642,567.656921 
	C324.461884,567.724548 324.022095,567.792236 322.932220,567.566650 
	C317.372070,567.162170 312.462036,567.050903 307.552002,566.939636 
	C307.471710,559.267761 307.391418,551.595947 307.685364,543.387085 
	C308.381622,542.035095 308.703583,541.220154 309.025574,540.405151 
	C309.463165,540.352295 309.900757,540.299438 310.718323,540.578125 
	C311.738068,540.745789 312.377838,540.581970 313.017609,540.418152 
z"/>
<path fill="#346487" opacity="1.000000" stroke="none" 
	d="
M328.409546,506.643921 
	C328.676453,504.423065 329.907227,502.306061 329.922302,500.180481 
	C330.068939,479.558441 329.962067,458.934662 330.061310,438.312073 
	C330.078003,434.845673 329.761414,432.734253 325.326141,432.861053 
	C321.139954,432.980743 319.898285,434.436829 319.913666,438.489014 
	C319.970520,453.437531 319.730713,468.387177 319.323914,483.635803 
	C319.045349,466.646820 319.045349,449.358398 319.045349,431.917419 
	C323.345093,431.917419 327.428986,431.917419 331.906586,431.917419 
	C331.906586,442.536499 331.906372,452.839935 331.906616,463.143341 
	C331.906921,476.295654 331.900543,489.447998 331.915131,502.600311 
	C331.917542,504.792877 332.321594,507.216888 328.409546,506.643921 
z"/>
<path fill="#366E91" opacity="1.000000" stroke="none" 
	d="
M259.816620,566.939392 
	C258.580475,567.368103 257.344360,567.796875 255.338516,568.492554 
	C255.338516,560.337585 255.338516,552.948425 255.338516,545.258606 
	C252.510178,545.057983 250.251343,544.897705 247.881302,544.729553 
	C246.524521,541.696655 246.901260,540.053833 250.743088,540.159790 
	C256.385162,540.315430 262.034668,540.199951 268.054291,540.199951 
	C268.054291,541.750549 268.054291,543.126953 268.054291,545.001526 
	C265.583862,545.001526 263.293427,545.001526 260.234070,545.280884 
	C259.295807,549.691833 258.973755,553.824768 259.008148,557.954712 
	C259.033142,560.951660 259.530121,563.944641 259.816620,566.939392 
z"/>
<path fill="#2E688E" opacity="1.000000" stroke="none" 
	d="
M532.938232,540.779114 
	C536.068359,539.323425 536.288086,541.426514 536.303711,543.603577 
	C536.339539,548.587158 536.580811,553.591492 536.214539,558.548767 
	C535.909424,562.676636 537.521606,563.931458 541.343567,563.525879 
	C543.298584,563.318420 545.293823,563.489502 547.380676,563.489502 
	C548.507446,566.496582 548.118225,568.065918 544.680237,567.970947 
	C540.542664,567.856689 536.399414,567.943970 531.783325,567.943970 
	C531.783325,559.368042 531.783325,551.102478 531.945984,542.918701 
	C532.108643,549.200928 532.108643,555.401428 532.108643,561.601929 
	C532.385193,561.595947 532.661682,561.589966 532.938232,561.583923 
	C532.938232,554.648987 532.938232,547.714050 532.938232,540.779114 
z"/>
<path fill="#265F81" opacity="1.000000" stroke="none" 
	d="
M500.977081,431.936737 
	C504.594818,431.936737 508.212555,431.936737 512.142944,431.936737 
	C512.142944,456.705566 512.142944,481.490753 512.142944,506.633514 
	C508.131439,506.633514 504.354462,506.633514 500.545319,506.178253 
	C500.767029,505.520691 500.944580,505.265350 501.498474,504.971741 
	C502.617493,504.990509 503.283875,504.997803 503.950226,504.998016 
	C510.992828,505.000000 510.995575,504.999664 510.995850,498.046265 
	C510.996613,479.554413 510.994751,461.062531 510.993896,442.570679 
	C510.993439,432.892853 510.993378,432.892853 501.047546,432.779602 
	C501.009186,432.311249 500.993134,432.123993 500.977081,431.936737 
z"/>
<path fill="#E4F1F5" opacity="1.000000" stroke="none" 
	d="
M280.923004,434.864319 
	C280.203949,434.582916 279.518341,433.870239 278.294556,432.679443 
	C274.502350,432.139526 271.248352,432.077698 267.994324,432.015869 
	C267.830261,431.975403 267.666229,431.934967 266.909363,431.981506 
	C266.181305,432.708527 266.046082,433.348602 265.910889,433.988678 
	C265.838623,435.390320 265.766327,436.791992 265.725647,439.052979 
	C265.808655,443.270905 265.860077,446.629486 265.911499,449.988098 
	C265.838684,467.690063 265.765900,485.392059 265.727600,503.922516 
	C265.853973,505.496735 265.945801,506.242493 266.037659,506.988220 
	C265.359131,505.703918 264.095764,504.422668 264.089020,503.134827 
	C263.969238,480.350830 264.000732,457.565979 264.009338,434.781342 
	C264.009644,433.953644 263.798615,432.899902 264.210876,432.333649 
	C267.893402,427.275787 273.138428,430.833954 277.624756,430.122833 
	C280.515625,429.664612 281.129578,431.985168 280.923004,434.864319 
z"/>
<path fill="#2E688E" opacity="1.000000" stroke="none" 
	d="
M450.804993,548.188110 
	C450.805023,545.426636 450.805023,543.137085 450.805023,540.939514 
	C453.926849,539.678223 455.676971,539.927551 455.649963,543.485413 
	C455.589813,551.409241 455.631165,559.333801 455.631165,567.595093 
	C453.903656,567.595093 452.543701,567.595093 450.804932,567.595093 
	C450.804932,561.186462 450.804932,554.923279 450.804993,548.188110 
z"/>
<path fill="#1F658D" opacity="1.000000" stroke="none" 
	d="
M399.417755,238.874878 
	C400.139404,241.133026 400.705902,243.545593 400.959381,245.990646 
	C401.209320,248.401642 401.002563,250.584457 397.770355,251.172150 
	C396.840576,251.341202 396.144073,252.955276 395.400696,253.951675 
	C394.135681,255.647247 393.298676,257.101807 390.317963,256.578125 
	C388.716339,256.296753 384.858673,259.356232 384.901764,260.823547 
	C385.112061,267.981415 381.480164,266.590515 376.957092,264.899628 
	C385.177032,257.210449 393.236420,249.075317 399.417755,238.874878 
z"/>
<path fill="#1C587B" opacity="1.000000" stroke="none" 
	d="
M266.284546,507.015259 
	C265.945801,506.242493 265.853973,505.496735 265.836609,504.381592 
	C266.684692,504.305084 267.435455,504.741058 268.235443,504.868805 
	C276.223328,506.144287 276.994232,505.465424 276.992737,497.365814 
	C276.990540,485.267792 276.965302,473.169586 277.039398,461.071991 
	C277.048187,459.641510 277.619598,458.214417 278.240662,457.371918 
	C278.561920,472.624298 278.599152,487.290649 278.545471,501.956635 
	C278.539673,503.542236 278.006958,505.125916 277.718658,506.710480 
	C277.718658,506.710480 277.962708,506.778381 277.418549,506.795807 
	C273.588470,506.925110 270.302521,507.036957 267.016602,507.148865 
	C267.016602,507.148865 266.531433,507.042328 266.284546,507.015259 
z"/>
<path fill="#1C587B" opacity="1.000000" stroke="none" 
	d="
M369.569946,442.985443 
	C370.042664,442.973175 370.023468,443.427734 369.998657,443.653870 
	C362.688171,443.880005 355.402527,443.880005 347.830658,443.880005 
	C347.830658,439.892639 347.830658,436.140472 347.830658,432.051086 
	C367.851593,432.051086 387.671082,432.051086 407.895874,432.051086 
	C407.895874,434.789551 407.895874,437.403320 407.831818,440.467896 
	C405.726318,433.012604 405.726318,433.013550 396.652527,433.013214 
	C382.339996,433.012695 368.026917,433.078674 353.715393,432.957306 
	C350.505371,432.930084 348.723206,433.492310 348.929474,437.284210 
	C349.109039,440.584473 349.140717,443.257996 353.622070,443.058411 
	C358.771149,442.829132 363.938049,443.000427 369.569946,442.985443 
z"/>
<path fill="#1F658D" opacity="1.000000" stroke="none" 
	d="
M403.696228,231.201385 
	C404.308289,231.300354 404.626801,231.826614 405.032654,231.905899 
	C408.650360,232.612549 411.235321,234.749771 413.607117,237.828125 
	C411.829865,241.894180 409.731079,245.805740 407.342957,249.893280 
	C407.994934,247.191422 408.936188,244.313629 409.809235,241.644394 
	C406.850616,240.770660 403.669098,239.831131 400.075500,238.799469 
	C400.923340,236.278702 402.183258,233.850037 403.696228,231.201385 
z"/>
<path fill="#265F81" opacity="1.000000" stroke="none" 
	d="
M338.085571,297.499512 
	C338.772919,298.693909 339.897888,300.341736 339.917664,302.002686 
	C340.068970,314.725098 339.963165,327.450348 340.036224,340.174133 
	C340.055817,343.584930 340.416931,346.993774 340.352661,350.677155 
	C339.394348,346.574799 338.197021,342.208832 338.109863,337.820862 
	C337.846039,324.538177 338.012482,311.246948 338.085571,297.499512 
z"/>
<path fill="#E4F1F5" opacity="1.000000" stroke="none" 
	d="
M278.106079,506.800476 
	C278.006958,505.125916 278.539673,503.542236 278.545471,501.956635 
	C278.599152,487.290649 278.561920,472.624298 278.516541,457.493134 
	C278.597137,456.482086 278.712250,455.936005 278.904114,454.977722 
	C281.542114,457.830048 284.103394,461.094543 286.750977,464.678802 
	C284.817108,464.553528 282.796936,464.108490 279.996185,463.491516 
	C279.996185,465.969818 279.969757,468.367706 280.000702,470.764893 
	C280.148010,482.175018 280.342743,493.584869 280.383057,504.995300 
	C280.385254,505.624786 279.151794,506.258636 278.106079,506.800476 
z"/>
<path fill="#457394" opacity="1.000000" stroke="none" 
	d="
M229.915436,489.470947 
	C231.202667,491.603943 233.152512,493.947296 233.864655,496.620422 
	C235.663696,503.373291 237.727371,505.341095 244.122604,505.059418 
	C248.139297,504.882477 248.880417,503.530212 247.231400,499.686310 
	C246.393112,497.732208 245.770920,495.685364 245.072327,493.285553 
	C247.182861,497.323822 249.272125,501.756989 251.664978,506.834351 
	C246.877747,506.834351 243.058609,507.053101 239.290619,506.710052 
	C238.052017,506.597260 236.419739,505.271820 235.872086,504.083862 
	C233.723541,499.423431 231.936096,494.596497 229.915436,489.470947 
z"/>
<path fill="#366E91" opacity="1.000000" stroke="none" 
	d="
M181.467484,493.971344 
	C180.688507,497.324249 179.643265,500.696747 178.336105,504.914246 
	C181.468185,504.914246 184.521591,505.171021 187.485214,504.767883 
	C188.456192,504.635773 189.383759,502.889404 190.004135,501.709351 
	C192.192047,497.547607 194.238068,493.311279 196.690750,489.068176 
	C195.068604,493.957062 193.273987,498.966644 191.003464,503.750275 
	C190.361588,505.102600 188.412094,506.467194 186.916245,506.653473 
	C183.476959,507.081818 179.947861,506.789307 175.470856,506.789307 
	C177.522858,502.206299 179.362030,498.098633 181.467484,493.971344 
z"/>
<path fill="#1C587B" opacity="1.000000" stroke="none" 
	d="
M500.531769,432.056610 
	C500.993134,432.123993 501.009186,432.311249 501.029907,433.241333 
	C501.038330,457.641724 501.042084,481.299316 501.045807,504.956940 
	C500.944580,505.265350 500.767029,505.520691 500.309509,505.842041 
	C500.105835,505.961090 500.028839,505.930634 500.017761,505.607147 
	C499.966095,505.096588 499.925507,504.909515 499.884888,504.722443 
	C499.952087,480.540466 500.019257,456.358459 500.531769,432.056610 
z"/>
<path fill="#265F81" opacity="1.000000" stroke="none" 
	d="
M223.406494,440.497406 
	C221.608612,439.254547 219.571793,437.764038 217.795563,436.009735 
	C213.159836,431.431213 209.986603,431.702301 206.276581,437.128876 
	C205.442261,438.349213 204.502289,439.497345 203.304810,440.820251 
	C203.160614,440.329468 203.263107,439.674500 203.493576,439.068146 
	C206.175629,432.012207 211.817917,428.913727 218.587509,432.016083 
	C220.906219,433.078705 221.762100,437.333313 223.406494,440.497406 
z"/>
<path fill="#1C587B" opacity="1.000000" stroke="none" 
	d="
M390.721558,541.023438 
	C391.004822,547.690674 391.049377,554.312744 390.959320,560.933044 
	C390.937897,562.507141 390.465881,564.075195 389.810944,565.346375 
	C389.315704,557.374695 389.210602,549.702576 389.105530,542.030518 
	C389.548187,541.679565 389.990845,541.328674 390.721558,541.023438 
z"/>
<path fill="#457394" opacity="1.000000" stroke="none" 
	d="
M412.611084,497.106079 
	C412.474304,499.261414 412.075378,501.649933 411.501587,505.085602 
	C415.293091,504.880188 419.079041,504.675049 423.203949,504.305328 
	C422.619446,505.051025 421.753845,506.665222 420.762360,506.746674 
	C416.988495,507.056610 413.173981,506.871674 408.384888,506.871674 
	C409.882721,503.269836 411.115845,500.304565 412.611084,497.106079 
z"/>
<path fill="#265F81" opacity="1.000000" stroke="none" 
	d="
M385.495056,443.978088 
	C392.318695,443.294159 399.605133,442.655518 407.346161,442.034058 
	C406.662109,442.708954 405.539917,443.899719 404.382111,443.935394 
	C398.245667,444.124664 392.100220,444.023743 385.495056,443.978088 
z"/>
<path fill="#265F81" opacity="1.000000" stroke="none" 
	d="
M364.410767,271.668579 
	C358.841766,277.960327 351.038605,276.487762 343.320251,276.317352 
	C350.028168,274.602936 357.022949,273.166168 364.410767,271.668579 
z"/>
<path fill="#366E91" opacity="1.000000" stroke="none" 
	d="
M314.472626,556.911621 
	C316.900635,556.332947 319.777710,555.826233 323.570648,555.158203 
	C318.998688,553.841003 315.534912,552.843018 312.024048,551.467896 
	C315.888336,551.817383 319.799652,552.544128 324.121429,553.347107 
	C324.766418,555.663635 324.470184,557.382141 320.915100,557.033142 
	C318.934784,556.838684 316.920624,556.988831 314.472626,556.911621 
z"/>
<path fill="#366E91" opacity="1.000000" stroke="none" 
	d="
M469.423218,505.351379 
	C473.196198,504.987549 477.081757,504.987549 481.407166,504.987549 
	C481.278687,503.303650 481.175751,501.954163 481.132385,500.207275 
	C482.182129,501.818390 483.172211,503.826904 484.894928,507.321594 
	C479.026062,506.707794 474.280914,506.211487 469.423218,505.351379 
z"/>
<path fill="#346487" opacity="1.000000" stroke="none" 
	d="
M404.015869,533.048340 
	C402.447205,536.145691 400.964691,539.721497 396.196075,538.763672 
	C397.792969,535.385132 399.002991,531.871704 404.015869,533.048340 
z"/>
<path fill="#1C587B" opacity="1.000000" stroke="none" 
	d="
M429.516052,489.137268 
	C429.732269,488.810608 430.409912,488.067841 431.084869,488.070282 
	C441.172974,488.106903 451.260742,488.241882 461.651917,488.632782 
	C451.295593,488.963837 440.635895,489.015808 429.516052,489.137268 
z"/>
<path fill="#1C587B" opacity="1.000000" stroke="none" 
	d="
M197.476349,489.010712 
	C198.721985,488.646912 200.434692,488.026520 202.146378,488.029297 
	C210.874603,488.043488 219.602585,488.218689 228.638428,488.609497 
	C218.611801,488.934814 208.277374,488.988159 197.476349,489.010712 
z"/>
<path fill="#346487" opacity="1.000000" stroke="none" 
	d="
M313.993652,500.405457 
	C314.771240,500.410339 315.742554,500.609619 316.527618,501.104431 
	C318.975220,502.647217 321.352295,504.301880 323.871552,506.233826 
	C318.515137,508.311462 316.439850,504.300354 313.993652,500.405457 
z"/>
<path fill="#E4F1F5" opacity="1.000000" stroke="none" 
	d="
M388.792572,542.307983 
	C389.210602,549.702576 389.315704,557.374695 389.471619,565.510254 
	C389.480835,566.160645 389.439270,566.347473 389.270538,566.791992 
	C388.762939,564.349304 388.088135,561.651550 388.063995,558.947937 
	C388.015259,553.495422 388.320404,548.039795 388.792572,542.307983 
z"/>
<path fill="#457394" opacity="1.000000" stroke="none" 
	d="
M245.102814,492.536804 
	C243.476913,489.649109 241.781784,486.401184 240.233383,483.084747 
	C239.695847,481.933472 239.521851,480.612488 239.216156,478.973389 
	C241.197418,483.101746 243.144333,487.625732 245.102814,492.536804 
z"/>
<path fill="#1C587B" opacity="1.000000" stroke="none" 
	d="
M259.912354,566.483398 
	C259.530121,563.944641 259.033142,560.951660 259.008148,557.954712 
	C258.973755,553.824768 259.295807,549.691833 259.799500,545.310059 
	C260.091919,552.049072 260.049988,559.038269 259.912354,566.483398 
z"/>
<path fill="#346487" opacity="1.000000" stroke="none" 
	d="
M416.811829,349.248779 
	C418.322052,353.360474 416.771027,356.417542 412.210327,357.910126 
	C413.423706,355.096436 414.989044,352.283264 416.811829,349.248779 
z"/>
<path fill="#1C587B" opacity="1.000000" stroke="none" 
	d="
M378.228882,551.512451 
	C378.148621,556.033569 378.148621,560.322754 378.148621,564.611938 
	C377.778290,564.615967 377.407990,564.619934 377.037659,564.623901 
	C377.037659,556.923279 377.037659,549.222595 377.069824,541.018616 
	C377.298828,540.545837 377.495636,540.576355 377.805695,541.315063 
	C377.987854,544.792664 378.056732,547.562134 378.125610,550.331665 
	C378.302856,550.625488 378.364044,550.941772 378.228882,551.512451 
z"/>
<path fill="#1C587B" opacity="1.000000" stroke="none" 
	d="
M532.623413,540.837158 
	C532.938232,547.714050 532.938232,554.648987 532.938232,561.583923 
	C532.661682,561.589966 532.385193,561.595947 532.108643,561.601929 
	C532.108643,555.401428 532.108643,549.200928 532.066406,542.540161 
	C532.118958,541.684937 532.213806,541.290100 532.623413,540.837158 
z"/>
<path fill="#457394" opacity="1.000000" stroke="none" 
	d="
M417.749573,484.295898 
	C416.468628,488.224854 414.986450,492.433105 413.173492,496.780396 
	C414.411255,492.804657 415.979767,488.689911 417.749573,484.295898 
z"/>
<path fill="#366E91" opacity="1.000000" stroke="none" 
	d="
M325.247864,567.539917 
	C324.125122,564.724670 322.334930,563.633911 319.246002,563.961548 
	C317.059296,564.193420 314.797791,563.720154 312.314270,563.241577 
	C315.464996,563.114502 318.877869,563.534485 322.275299,563.433838 
	C325.415527,563.340820 326.518951,564.398438 325.247864,567.539917 
z"/>
<path fill="#366E91" opacity="1.000000" stroke="none" 
	d="
M307.682312,567.309143 
	C312.462036,567.050903 317.372070,567.162170 322.601013,567.505859 
	C317.884155,567.718445 312.848389,567.698547 307.682312,567.309143 
z"/>
<path fill="#366E91" opacity="1.000000" stroke="none" 
	d="
M323.329285,544.893494 
	C322.379944,543.540649 321.770386,542.276611 321.071838,540.713989 
	C322.333527,540.645752 323.684204,540.875977 325.034851,541.106201 
	C324.579620,542.398193 324.124359,543.690247 323.329285,544.893494 
z"/>
<path fill="#366E91" opacity="1.000000" stroke="none" 
	d="
M481.214478,499.517792 
	C479.878754,497.033783 478.514038,494.172394 477.170227,490.891327 
	C478.522583,493.361237 479.854034,496.250793 481.214478,499.517792 
z"/>
<path fill="#265F81" opacity="1.000000" stroke="none" 
	d="
M374.587830,266.007690 
	C375.212372,270.032288 371.866241,269.266937 369.179810,269.867737 
	C370.604370,268.570465 372.432709,267.327576 374.587830,266.007690 
z"/>
<path fill="#1C587B" opacity="1.000000" stroke="none" 
	d="
M430.461609,541.143677 
	C426.812012,541.495605 422.717163,541.738281 418.141113,541.936707 
	C421.778717,541.606445 425.897552,541.320496 430.461609,541.143677 
z"/>
<path fill="#E4F1F5" opacity="1.000000" stroke="none" 
	d="
M267.328308,507.395569 
	C270.302521,507.036957 273.588470,506.925110 277.305420,506.738831 
	C277.068817,507.138519 276.404327,508.011261 275.733002,508.016510 
	C273.036499,508.037750 270.337891,507.790405 267.328308,507.395569 
z"/>
<path fill="#1F658D" opacity="1.000000" stroke="none" 
	d="
M396.401306,264.085022 
	C396.022949,261.891022 396.141541,259.766479 399.632202,260.461670 
	C398.843018,261.773621 397.786163,262.892578 396.401306,264.085022 
z"/>
<path fill="#2E688E" opacity="1.000000" stroke="none" 
	d="
M378.252686,549.947144 
	C378.056732,547.562134 377.987854,544.792664 377.950348,541.576416 
	C378.114380,543.940674 378.247070,546.751648 378.252686,549.947144 
z"/>
<path fill="#265F81" opacity="1.000000" stroke="none" 
	d="
M341.872650,275.657776 
	C339.814575,275.659332 337.544525,275.348663 335.164764,274.687195 
	C337.256927,274.672791 339.458801,275.009125 341.872650,275.657776 
z"/>
<path fill="#1F658D" opacity="1.000000" stroke="none" 
	d="
M401.176025,258.791077 
	C401.439362,258.011047 401.951996,257.048004 402.792023,256.079163 
	C402.554718,256.918274 401.989990,257.763153 401.176025,258.791077 
z"/>
<path fill="#E4F1F5" opacity="1.000000" stroke="none" 
	d="
M389.158569,567.925415 
	C389.944183,567.662109 390.733032,567.793335 391.809357,568.004028 
	C391.285187,570.231812 390.323639,570.519043 389.158569,567.925415 
z"/>
<path fill="#366E91" opacity="1.000000" stroke="none" 
	d="
M308.706757,540.357178 
	C308.703583,541.220154 308.381622,542.035095 307.795258,542.932495 
	C307.816559,542.113037 308.102234,541.211121 308.706757,540.357178 
z"/>
<path fill="#346487" opacity="1.000000" stroke="none" 
	d="
M411.621033,358.000244 
	C411.201294,358.908966 410.501251,359.953918 409.427979,361.009583 
	C409.816742,360.059052 410.578735,359.097778 411.621033,358.000244 
z"/>
<path fill="#1F658D" opacity="1.000000" stroke="none" 
	d="
M405.303986,252.892654 
	C405.477448,252.075516 405.923187,251.102768 406.720276,250.088837 
	C406.573181,250.944138 406.074738,251.840591 405.303986,252.892654 
z"/>
<path fill="#366E91" opacity="1.000000" stroke="none" 
	d="
M477.016296,489.641907 
	C476.384430,488.749023 475.759857,487.501617 475.169006,485.886292 
	C475.809692,486.774719 476.416626,488.031036 477.016296,489.641907 
z"/>
<path fill="#366E91" opacity="1.000000" stroke="none" 
	d="
M312.682648,540.326050 
	C312.377838,540.581970 311.738068,540.745789 311.040466,540.662964 
	C311.437622,540.355469 311.892670,540.294678 312.682648,540.326050 
z"/>
<path fill="#265F81" opacity="1.000000" stroke="none" 
	d="
M368.592957,269.764526 
	C368.418457,270.102997 367.935699,270.484406 367.117065,270.834900 
	C367.282349,270.471802 367.783539,270.139648 368.592957,269.764526 
z"/>
<path fill="#265F81" opacity="1.000000" stroke="none" 
	d="
M366.574463,270.753540 
	C366.390320,271.093201 365.896240,271.464935 365.065063,271.766724 
	C365.240112,271.393097 365.752319,271.089386 366.574463,270.753540 
z"/>
<path fill="#1F658D" opacity="1.000000" stroke="none" 
	d="
M403.346741,255.967499 
	C403.287476,255.532120 403.495392,254.946350 404.013824,254.256256 
	C404.087555,254.706985 403.850769,255.262054 403.346741,255.967499 
z"/>
<path fill="#265F81" opacity="1.000000" stroke="none" 
	d="
M499.793549,504.865662 
	C499.925507,504.909515 499.966095,505.096588 500.034637,505.569336 
	C499.942444,505.572968 499.822327,505.290924 499.793549,504.865662 
z"/>
<path fill="#1F658D" opacity="1.000000" stroke="none" 
	d="
M404.447998,254.165298 
	C404.323242,253.949310 404.452484,253.621414 404.814880,253.156311 
	C404.932678,253.363861 404.817352,253.708633 404.447998,254.165298 
z"/>
<path fill="#346487" opacity="1.000000" stroke="none" 
	d="
M417.883026,346.255981 
	C417.965332,346.223999 417.932312,346.446350 417.912720,346.495422 
	C417.893097,346.544525 417.800720,346.287933 417.883026,346.255981 
z"/>
<path fill="#ECF0F3" opacity="1.000000" stroke="none" 
	d="
M426.091949,329.887512 
	C413.616730,318.559906 418.452026,303.818054 427.060181,298.163696 
	C433.139984,294.170135 439.544067,292.819031 446.317505,296.260162 
	C453.113403,299.712616 457.025604,305.024628 458.257233,312.848724 
	C459.474701,320.583038 455.918915,325.346039 449.824738,329.883972 
	C442.041687,335.205261 434.671173,334.448212 427.231079,330.780121 
	C427.231079,330.780121 427.132538,330.753540 427.074310,330.538757 
	C426.708038,330.178467 426.399994,330.032990 426.091949,329.887512 
M433.479980,321.044098 
	C436.966339,323.044464 440.883453,323.495819 443.565186,320.559204 
	C445.409546,318.539520 446.942535,314.664734 446.247894,312.320404 
	C445.489502,309.760895 442.327271,307.106384 439.622803,306.133606 
	C436.187164,304.897827 432.848907,306.678833 430.981506,310.240784 
	C428.908569,314.194733 429.940765,317.562103 433.479980,321.044098 
z"/>
<path fill="#1C587B" opacity="1.000000" stroke="none" 
	d="
M351.908142,336.480560 
	C351.908020,337.874756 351.908020,338.841003 351.908020,339.807281 
	C351.695068,339.807892 351.482086,339.808472 351.269135,339.809082 
	C351.269135,326.328491 351.269135,312.847900 351.269135,299.367310 
	C351.482178,299.363373 351.695221,299.359467 351.908264,299.355560 
	C351.908264,311.587921 351.908264,323.820282 351.908142,336.480560 
z"/>
<path fill="#346487" opacity="1.000000" stroke="none" 
	d="
M427.218323,331.152954 
	C434.671173,334.448212 442.041687,335.205261 449.611267,330.149292 
	C449.391815,331.131989 449.122009,332.673462 448.234619,333.229767 
	C443.263031,336.346313 432.023071,335.320496 427.218323,331.152954 
z"/>
<path fill="#346487" opacity="1.000000" stroke="none" 
	d="
M426.195740,330.127777 
	C426.399994,330.032990 426.708038,330.178467 427.116364,330.566833 
	C426.910919,330.662506 426.605225,330.515289 426.195740,330.127777 
z"/>
<path fill="#ECF0F3" opacity="1.000000" stroke="none" 
	d="
M450.108582,457.958435 
	C452.769775,464.113373 455.430939,470.268311 458.290131,476.881226 
	C450.114380,476.881226 442.589630,476.881226 434.318024,476.881226 
	C437.400299,469.450073 440.343384,462.354492 443.984863,455.125183 
	C446.491669,455.980469 448.300140,456.969452 450.108582,457.958435 
z"/>
<path fill="#E4F1F5" opacity="1.000000" stroke="none" 
	d="
M450.081604,457.582825 
	C448.300140,456.969452 446.491669,455.980469 444.307861,454.980896 
	C444.565125,452.680725 445.197784,450.391144 446.118408,447.059357 
	C447.731293,451.217468 448.892975,454.212341 450.081604,457.582825 
z"/>
<path fill="#ECF0F3" opacity="1.000000" stroke="none" 
	d="
M216.848831,456.161774 
	C219.634781,463.115845 222.319992,469.701996 225.223526,476.823669 
	C217.178009,476.823669 209.702850,476.823669 201.599167,476.823669 
	C205.519073,467.043945 209.255737,457.721375 213.292084,447.651154 
	C214.687881,450.939789 215.717972,453.366821 216.848831,456.161774 
z"/>
<path fill="#1C587B" opacity="1.000000" stroke="none" 
	d="
M266.218140,449.718628 
	C265.860077,446.629486 265.808655,443.270905 265.834351,439.462341 
	C266.115936,442.491302 266.320374,445.970245 266.218140,449.718628 
z"/>
<path fill="#1C587B" opacity="1.000000" stroke="none" 
	d="
M268.289307,432.304749 
	C271.248352,432.077698 274.502350,432.139526 278.023590,432.550476 
	C275.055298,432.797607 271.819763,432.695648 268.289307,432.304749 
z"/>
<path fill="#1C587B" opacity="1.000000" stroke="none" 
	d="
M266.170929,433.836670 
	C266.046082,433.348602 266.181305,432.708527 266.663452,432.042694 
	C266.817230,432.572845 266.624115,433.128754 266.170929,433.836670 
z"/>
<path fill="#E4F1F5" opacity="1.000000" stroke="none" 
	d="
M292.049347,546.703369 
	C293.190826,553.399170 291.713593,554.421936 282.342896,553.667236 
	C282.342896,550.995422 282.342896,548.287415 282.342896,544.375977 
	C285.628143,545.050415 288.752533,545.691895 292.049347,546.703369 
z"/>
<path fill="#E4F1F5" opacity="1.000000" stroke="none" 
	d="
M512.758423,553.404297 
	C513.171326,554.682556 513.432922,555.612915 513.776123,556.833374 
	C511.358673,556.833374 509.129791,556.833374 506.306885,556.833374 
	C507.500458,553.860901 508.601837,551.117981 510.026489,547.570007 
	C511.155579,549.970276 511.881409,551.513306 512.758423,553.404297 
z"/>
<path fill="#E4F1F5" opacity="1.000000" stroke="none" 
	d="
M430.257690,545.303223 
	C435.549835,548.470215 437.329590,552.402710 435.845428,557.649902 
	C434.522430,562.327271 431.011719,563.873962 422.323029,562.773682 
	C422.045563,556.521118 422.045563,550.980164 422.045563,545.303223 
	C425.101105,545.303223 427.679413,545.303223 430.257690,545.303223 
z"/>
<path fill="#1C587B" opacity="1.000000" stroke="none" 
	d="
M429.971130,544.967834 
	C427.679413,545.303223 425.101105,545.303223 422.045563,545.303223 
	C422.045563,550.980164 422.045563,556.521118 422.030212,562.529724 
	C421.559753,562.825439 420.705475,562.648804 420.707428,562.482361 
	C420.772827,557.036621 420.087250,551.393921 421.319122,546.209473 
	C422.306122,542.055542 426.632202,544.133911 429.971130,544.967834 
z"/>
<path fill="#1E6897" opacity="1.000000" stroke="none" 
	d="
M501.498474,504.971741 
	C501.042084,481.299316 501.038330,457.641724 501.052185,433.522369 
	C510.993378,432.892853 510.993439,432.892853 510.993896,442.570679 
	C510.994751,461.062531 510.996613,479.554413 510.995850,498.046265 
	C510.995575,504.999664 510.992828,505.000000 503.950226,504.998016 
	C503.283875,504.997803 502.617493,504.990509 501.498474,504.971741 
z"/>
<path fill="#216693" opacity="1.000000" stroke="none" 
	d="
M433.174866,320.818756 
	C429.940765,317.562103 428.908569,314.194733 430.981506,310.240784 
	C432.848907,306.678833 436.187164,304.897827 439.622803,306.133606 
	C442.327271,307.106384 445.489502,309.760895 446.247894,312.320404 
	C446.942535,314.664734 445.409546,318.539520 443.565186,320.559204 
	C440.883453,323.495819 436.966339,323.044464 433.174866,320.818756 
z"/>
</svg>
